#!OML:ASF H:\BreakDance\Project 1\Capture day 1\Session 1\Male.ASF
:FULLY-SPECIFIED
:DEGREES
2396
root 3.25241 15.7352 3.76615 13.8904 -60.9066 354.973
lowerback 4.42613 4.86008 -0.722167
upperback 5.24286 6.38249 -1.49257
thorax 3.02936 3.15269 -1.24016
lowerneck -2.24903 -3.40059 -3.00036
upperneck -0.875919 -4.47454 3.45894
head 0.258698 -2.22374 1.52679
rclavicle -1.29608e-013 4.13472e-014
rhumerus 23.1305 11.9766 -63.5282
rradius 96.3752
rwrist 16.0804
rhand -17.6772 -380.471
rfingers 7.12502
rthumb 8.58189 309.724
lclavicle -1.29608e-013 4.13472e-014
lhumerus 13.9967 -18.4448 40.0143
lradius 97.0028
lwrist -7.30433
lhand -39.7148 689.809
lfingers 7.12502
lthumb -12.6928 359.403
rfemur -39.5668 -7.08364 16.2884
rtibia 48.0086
rfoot -19.2995 -3.69822
rtoes -18.7756
lfemur 327.685 1.39068 339.471
ltibia 56.8821
lfoot -36.1496 11.6762
ltoes -18.3972
2397
root 3.23019 15.7287 3.78181 13.378 -62.3926 355.992
lowerback 4.35843 4.93124 -1.83509
upperback 5.38499 6.44968 -1.51728
thorax 3.09738 3.14323 -0.648009
lowerneck -2.29559 -3.39161 -2.7958
upperneck -1.15427 -4.4624 3.31869
head 0.171274 -2.21964 1.44888
rclavicle -1.91827e-014 8.74653e-015
rhumerus 22.3436 11.8904 -65.401
rradius 97.5418
rwrist 16.5202
rhand -17.6465 -378.75
rfingers 7.12502
rthumb 8.61151 311.445
lclavicle -1.91827e-014 8.74653e-015
lhumerus 11.0521 -17.8184 42.0108
lradius 98.6468
lwrist -7.74355
lhand -40.9795 687.569
lfingers 7.12502
lthumb -13.9119 357.084
rfemur -40.4739 -7.63092 16.0684
rtibia 48.3384
rfoot -19.2999 -2.44485
rtoes -18.7622
lfemur 327.293 3.2054 338.663
ltibia 57.1441
lfoot -35.9711 10.9884
ltoes -18.2991
2398
root 3.2068 15.7199 3.79614 13.0139 -63.602 356.832
lowerback 4.31288 4.92227 -2.75291
upperback 5.51014 6.41614 -1.50945
thorax 3.15409 3.08862 -0.130649
lowerneck -2.23437 -3.40203 -2.68261
upperneck -1.51052 -4.47538 3.35578
head 0.0497726 -2.22892 1.44582
rclavicle -1.27023e-013 2.42517e-014
rhumerus 21.2264 11.8512 -67.4589
rradius 98.6387
rwrist 16.966
rhand -17.9925 -377.084
rfingers 7.12502
rthumb 8.27756 313.098
lclavicle -1.27023e-013 2.42517e-014
lhumerus 8.08985 -17.2046 44.1063
lradius 100.005
lwrist -8.34287
lhand -42.4257 684.908
lfingers 7.12502
lthumb -15.3053 354.321
rfemur -41.3441 -8.13978 15.9649
rtibia 48.7092
rfoot -19.362 -1.24982
rtoes -17.7932
lfemur 326.824 4.8259 338.033
ltibia 57.4813
lfoot -35.7815 10.2227
ltoes -18.1792
2399
root 3.18323 15.71 3.81135 13.0254 -64.5208 357.218
lowerback 4.31183 4.82229 -3.34459
upperback 5.6032 6.26744 -1.45394
thorax 3.18662 2.98784 0.255106
lowerneck -1.99311 -3.41198 -2.59102
upperneck -1.93902 -4.48803 3.52511
head -0.120068 -2.24021 1.49322
rclavicle 3.37934e-015 1.70955e-014
rhumerus 19.7512 11.9002 -69.7174
rradius 99.6783
rwrist 17.38
rhand -18.6753 -375.641
rfingers 7.12502
rthumb 7.61857 314.516
lclavicle 3.37934e-015 1.70955e-014
lhumerus 5.16564 -16.5857 46.2723
lradius 100.992
lwrist -9.11887
lhand -43.9714 681.921
lfingers 7.12502
lthumb -16.7936 351.215
rfemur -42.1007 -8.64882 16.0909
rtibia 49.0414
rfoot -19.4426 -0.203188
rtoes -16.7067
lfemur 326.33 6.21067 337.702
ltibia 57.8896
lfoot -35.6085 9.40273
ltoes -18.0679
2400
root 3.16005 15.7 3.8291 13.5106 -65.1812 357.036
lowerback 4.3607 4.62245 -3.6007
upperback 5.67016 5.98994 -1.31872
thorax 3.19646 2.83478 0.537897
lowerneck -1.66615 -3.40048 -2.60386
upperneck -2.33369 -4.4695 3.79031
head -0.290418 -2.2368 1.59169
rclavicle 9.50191e-014 -2.38542e-015
rhumerus 17.9704 12.1056 -72.0991
rradius 100.676
rwrist 17.665
rhand -19.6361 -374.52
rfingers 7.12502
rthumb 6.69108 315.605
lclavicle 9.50191e-014 -2.38542e-015
lhumerus 2.26605 -15.8689 48.5512
lradius 101.6
lwrist -10.0749
lhand -45.5243 678.758
lfingers 7.12502
lthumb -18.2881 347.918
rfemur -42.6983 -9.14693 16.4655
rtibia 49.2765
rfoot -19.5291 0.608723
rtoes -16.225
lfemur 325.859 7.36325 337.7
ltibia 58.3342
lfoot -35.465 8.57545
ltoes -18.044
2401
root 3.13723 15.6917 3.85075 14.4059 -65.6481 356.365
lowerback 4.46167 4.36319 -3.54441
upperback 5.71715 5.63666 -1.12451
thorax 3.18552 2.65557 0.708219
lowerneck -1.378 -3.39122 -2.75718
upperneck -2.58962 -4.45154 4.14567
head -0.406994 -2.23263 1.74176
rclavicle -6.75868e-014 3.3197e-014
rhumerus 15.9024 12.398 -74.525
rradius 101.647
rwrist 17.7466
rhand -20.8196 -373.776
rfingers 7.12502
rthumb 5.5485 316.317
lclavicle -6.75868e-014 3.3197e-014
lhumerus -0.537313 -15.0551 50.9391
lradius 101.893
lwrist -11.1598
lhand -46.9807 675.638
lfingers 7.12502
lthumb -19.6887 344.661
rfemur -43.129 -9.57661 17.0102
rtibia 49.3893
rfoot -19.6187 1.17624
rtoes -16.5193
lfemur 325.447 8.32593 337.959
ltibia 58.7594
lfoot -35.3597 7.80144
ltoes -18.2161
2402
root 3.11426 15.6864 3.87681 15.5584 -66.0038 355.39
lowerback 4.59082 4.07655 -3.2732
upperback 5.74414 5.25033 -0.904878
thorax 3.15684 2.46827 0.785503
lowerneck -1.182 -3.39571 -2.99875
upperneck -2.66704 -4.45236 4.54034
head -0.449821 -2.23579 1.91654
rclavicle 2.97183e-014 -1.86858e-014
rhumerus 13.5844 12.7294 -76.9643
rradius 102.582
rwrist 17.6111
rhand -22.1798 -373.415
rfingers 7.12502
rthumb 4.23519 316.648
lclavicle 2.97183e-014 -1.86858e-014
lhumerus -3.22518 -14.1544 53.4188
lradius 101.965
lwrist -12.2734
lhand -48.2371 672.759
lfingers 7.12502
lthumb -20.8962 341.654
rfemur -43.4167 -9.84345 17.6003
rtibia 49.3885
rfoot -19.7014 1.53706
rtoes -17.2771
lfemur 325.121 9.15635 338.365
ltibia 59.1067
lfoot -35.2985 7.13481
ltoes -18.6397
2403
root 3.09023 15.6843 3.9069 16.7756 -66.3315 354.333
lowerback 4.73691 3.79841 -2.87776
upperback 5.74827 4.87864 -0.71038
thorax 3.10617 2.294 0.766817
lowerneck -1.14284 -3.42354 -3.32228
upperneck -2.52344 -4.4859 4.99042
head -0.392767 -2.25192 2.11837
rclavicle 2.62396e-014 -1.74931e-014
rhumerus 11.0423 13.0085 -79.4136
rradius 103.472
rwrist 17.3026
rhand -23.6409 -373.405
rfingers 7.12502
rthumb 2.82412 316.634
lclavicle 2.62396e-014 -1.74931e-014
lhumerus -5.76812 -13.2103 55.9706
lradius 101.913
lwrist -13.2942
lhand -49.1586 670.382
lfingers 7.12502
lthumb -21.7813 339.176
rfemur -43.5969 -9.8673 18.1062
rtibia 49.3052
rfoot -19.7708 1.74094
rtoes -18.0573
lfemur 324.9 9.90617 338.787
ltibia 59.3294
lfoot -35.2823 6.61177
ltoes -19.2677
2404
root 3.06398 15.6859 3.94038 17.8721 -66.7032 353.406
lowerback 4.87566 3.55691 -2.45216
upperback 5.728 4.55934 -0.593083
thorax 3.03934 2.14879 0.651022
lowerneck -1.2094 -3.4863 -3.63351
upperneck -2.22683 -4.5693 5.47112
head -0.266157 -2.29074 2.32503
rclavicle -1.35174e-014 -7.15625e-015
rhumerus 8.29443 13.1501 -81.8822
rradius 104.318
rwrist 16.8978
rhand -25.1317 -373.724
rfingers 7.12502
rthumb 1.38437 316.301
lclavicle -1.35174e-014 -7.15625e-015
lhumerus -8.1469 -12.2739 58.5595
lradius 101.819
lwrist -14.1112
lhand -49.6566 668.759
lfingers 7.12502
lthumb -22.2595 337.497
rfemur -43.7048 -9.6119 18.4189
rtibia 49.1744
rfoot -19.8268 1.86538
rtoes -18.3974
lfemur 324.793 10.6141 339.105
ltibia 59.4005
lfoot -35.3104 6.22428
ltoes -19.9392
